<svg width="2599" height="1600" viewBox="0 0 2599 1600" fill="none" xmlns="http://www.w3.org/2000/svg">
<path fill-rule="evenodd" clip-rule="evenodd" d="M1459.82 709C1505.46 709 1539.34 666.715 1529.37 622.183C1513.37 550.696 1497.31 479.21 1481.17 407.723C1464.94 334.683 1423.16 280.653 1356.8 248.136C1241.73 191.474 1126.39 135.097 1011.19 78.7908C973.82 60.5267 936.467 42.2699 899.144 24.0131C833.273 -8.00438 766.911 -8.00438 701.041 24.0131C624.848 61.2832 548.777 98.6783 472.707 136.073C396.636 173.469 320.564 210.865 244.37 248.136C177.025 281.154 135.241 335.183 118.528 409.724C83.626 566.31 48.2328 723.396 12.3481 880.982C11.9158 882.917 11.4798 884.856 11.043 886.799C6.51188 906.953 1.89538 927.485 0.550325 948.018C-3.38225 1007.55 13.8228 1060.58 50.1991 1107.61C61.2595 1121.61 72.32 1135.75 83.3804 1149.88C94.4407 1164.01 105.501 1178.14 116.561 1192.15C142.262 1224.92 167.963 1257.65 193.65 1290.35C251.484 1363.99 309.246 1437.54 366.772 1511.33C391.35 1542.84 421.828 1566.86 458.696 1582.37C486.715 1594.37 516.209 1599.88 546.195 1599.88H686.21C726.411 1599.88 759 1567.29 759 1527.09C759 1486.88 726.411 1454.3 686.21 1454.3H620.914C543.246 1454.3 480.816 1423.78 432.642 1361.74C357.923 1265.69 282.713 1170.14 207.502 1074.59C168.668 1025.56 150.48 970.03 155.887 907.496C157.575 888.172 161.798 869.586 166.069 850.787C166.774 847.685 167.48 844.578 168.176 841.46C192.755 730.4 217.825 619.339 242.895 508.279L242.895 508.278C259.609 434.738 301.392 381.208 368.246 348.19C478.358 294.161 588.471 240.131 698.091 186.102C765.928 153.084 833.765 153.084 901.602 186.102L901.629 186.115C1012.22 240.14 1122.82 294.165 1232.92 348.691C1299.28 381.709 1340.58 435.238 1357.29 508.278C1368.3 556.625 1379.3 604.972 1390.22 653.32C1397.57 685.861 1426.46 709 1459.82 709Z" fill="#372579"/>
<path d="M889.2 1459C877.467 1459 867.333 1455 858.8 1447C850.267 1439 846 1429.13 846 1417.4V875.8C846 863.533 850.267 853.667 858.8 846.2C867.333 838.2 877.467 834.2 889.2 834.2C901.467 834.2 911.067 838.2 918 846.2C925.467 853.667 929.2 863.533 929.2 875.8V1329.4L1313.2 849.4C1321.73 839.267 1332.4 834.2 1345.2 834.2C1357.47 834.2 1367.33 838.2 1374.8 846.2C1382.8 853.667 1386.8 863.533 1386.8 875.8V1417.4C1386.8 1429.13 1382.8 1439 1374.8 1447C1367.33 1455 1357.47 1459 1345.2 1459C1333.47 1459 1323.6 1455 1315.6 1447C1307.6 1439 1303.6 1429.13 1303.6 1417.4V964.6L921.2 1444.6C917.467 1448.87 912.667 1452.33 906.8 1455C900.933 1457.67 895.067 1459 889.2 1459ZM1981.98 1448.6C1974.51 1456.07 1964.38 1459.53 1951.58 1459C1938.78 1459 1928.65 1454.73 1921.18 1446.2L1658.78 1140.6L1903.58 847.8C1911.05 838.733 1920.65 834.2 1932.38 834.2C1944.65 833.667 1954.51 837.667 1961.98 846.2C1969.45 854.733 1972.91 863.8 1972.38 873.4C1972.38 882.467 1968.65 891.267 1961.18 899.8L1758.78 1135L1981.98 1394.2C1989.45 1402.73 1993.45 1411.8 1993.98 1421.4C1995.05 1430.47 1991.05 1439.53 1981.98 1448.6ZM1564.38 1459C1552.65 1459 1542.78 1455 1534.78 1447C1526.78 1439 1522.78 1429.13 1522.78 1417.4V875.8C1522.78 863.533 1526.78 853.667 1534.78 846.2C1542.78 838.2 1552.65 834.2 1564.38 834.2C1576.65 834.2 1586.51 838.2 1593.98 846.2C1601.98 853.667 1605.98 863.533 1605.98 875.8V1105.4H1737.18V1179H1605.98V1417.4C1605.98 1429.13 1601.98 1439 1593.98 1447C1586.51 1455 1576.65 1459 1564.38 1459ZM2125.54 1459C2113.8 1459 2103.94 1455 2095.94 1447C2087.94 1439 2083.94 1429.13 2083.94 1417.4V875.8C2083.94 863.533 2087.94 853.667 2095.94 846.2C2103.94 838.2 2113.8 834.2 2125.54 834.2H2464.74C2475.4 834.2 2484.2 837.933 2491.14 845.4C2498.6 852.333 2502.34 861.667 2502.34 873.4C2502.34 884.067 2498.6 893.133 2491.14 900.6C2484.2 907.533 2475.4 911 2464.74 911H2167.14V1091H2349.54C2389.54 1091 2425 1098.73 2455.94 1114.2C2486.87 1129.13 2510.87 1150.2 2527.94 1177.4C2545.54 1204.07 2554.34 1235 2554.34 1270.2C2554.34 1307 2545.54 1339.53 2527.94 1367.8C2510.87 1396.07 2486.87 1418.47 2455.94 1435C2425 1451 2389.54 1459 2349.54 1459H2125.54ZM2167.14 1382.2H2349.54C2374.07 1382.2 2395.67 1377.93 2414.34 1369.4C2433 1360.87 2447.67 1348.33 2458.34 1331.8C2469 1315.27 2474.34 1294.73 2474.34 1270.2C2474.34 1245.67 2469 1225.67 2458.34 1210.2C2447.67 1194.2 2433 1182.47 2414.34 1175C2395.67 1167 2374.07 1163 2349.54 1163H2167.14V1382.2Z" fill="#372579"/>
<path d="M858.8 1447L879.318 1425.11L858.8 1447ZM858.8 846.2L878.555 868.777L878.943 868.438L879.318 868.086L858.8 846.2ZM918 846.2L895.329 865.848L896.03 866.657L896.787 867.413L918 846.2ZM929.2 1329.4H899.2V1414.92L952.626 1348.14L929.2 1329.4ZM1313.2 849.4L1290.25 830.076L1290.01 830.364L1289.77 830.659L1313.2 849.4ZM1374.8 846.2L1352.87 866.67L1353.57 867.426L1354.33 868.132L1374.8 846.2ZM1374.8 1447L1353.59 1425.79L1353.22 1426.15L1352.87 1426.53L1374.8 1447ZM1303.6 964.6H1333.6V878.797L1280.14 945.907L1303.6 964.6ZM921.2 1444.6L943.777 1464.36L944.233 1463.83L944.664 1463.29L921.2 1444.6ZM906.8 1455L919.214 1482.31H919.214L906.8 1455ZM889.2 1429C885.062 1429 882.272 1427.88 879.318 1425.11L838.282 1468.89C852.395 1482.12 869.871 1489 889.2 1489V1429ZM879.318 1425.11C876.856 1422.81 876 1420.87 876 1417.4H816C816 1437.4 823.678 1455.19 838.282 1468.89L879.318 1425.11ZM876 1417.4V875.8H816V1417.4H876ZM876 875.8C876 871.385 877.11 870.042 878.555 868.777L839.045 823.623C823.423 837.292 816 855.681 816 875.8H876ZM879.318 868.086C882.272 865.317 885.062 864.2 889.2 864.2V804.2C869.871 804.2 852.395 811.083 838.282 824.314L879.318 868.086ZM889.2 864.2C892.072 864.2 893.512 864.663 894.062 864.892C894.5 865.075 894.845 865.289 895.329 865.848L940.671 826.552C927.108 810.903 908.637 804.2 889.2 804.2V864.2ZM896.787 867.413C897.715 868.341 899.2 870.099 899.2 875.8H959.2C959.2 856.968 953.219 838.992 939.213 824.987L896.787 867.413ZM899.2 875.8V1329.4H959.2V875.8H899.2ZM952.626 1348.14L1336.63 868.141L1289.77 830.659L905.774 1310.66L952.626 1348.14ZM1336.15 868.724C1339.21 865.087 1341.6 864.2 1345.2 864.2V804.2C1323.2 804.2 1304.26 813.446 1290.25 830.076L1336.15 868.724ZM1345.2 864.2C1350.26 864.2 1351.79 865.516 1352.87 866.67L1396.73 825.73C1382.88 810.884 1364.67 804.2 1345.2 804.2V864.2ZM1354.33 868.132C1355.48 869.208 1356.8 870.737 1356.8 875.8H1416.8C1416.8 856.329 1410.12 838.125 1395.27 824.268L1354.33 868.132ZM1356.8 875.8V1417.4H1416.8V875.8H1356.8ZM1356.8 1417.4C1356.8 1421.51 1355.73 1423.64 1353.59 1425.79L1396.01 1468.21C1409.87 1454.36 1416.8 1436.76 1416.8 1417.4H1356.8ZM1352.87 1426.53C1351.79 1427.68 1350.26 1429 1345.2 1429V1489C1364.67 1489 1382.88 1482.32 1396.73 1467.47L1352.87 1426.53ZM1345.2 1429C1341.09 1429 1338.96 1427.93 1336.81 1425.79L1294.39 1468.21C1308.24 1482.07 1325.84 1489 1345.2 1489V1429ZM1336.81 1425.79C1334.67 1423.64 1333.6 1421.51 1333.6 1417.4H1273.6C1273.6 1436.76 1280.53 1454.36 1294.39 1468.21L1336.81 1425.79ZM1333.6 1417.4V964.6H1273.6V1417.4H1333.6ZM1280.14 945.907L897.736 1425.91L944.664 1463.29L1327.06 983.293L1280.14 945.907ZM898.623 1424.84C898.061 1425.49 896.897 1426.55 894.386 1427.69L919.214 1482.31C928.437 1478.12 936.872 1472.25 943.777 1464.36L898.623 1424.84ZM894.386 1427.69C892.03 1428.76 890.378 1429 889.2 1429V1489C899.755 1489 909.836 1486.57 919.214 1482.31L894.386 1427.69ZM1981.98 1448.6L1960.77 1427.39L1981.98 1448.6ZM1951.58 1459L1952.83 1429.03L1952.21 1429H1951.58V1459ZM1921.18 1446.2L1898.42 1465.74L1898.51 1465.85L1898.6 1465.96L1921.18 1446.2ZM1658.78 1140.6L1635.77 1121.36L1619.46 1140.86L1636.02 1160.14L1658.78 1140.6ZM1903.58 847.8L1926.6 867.043L1926.67 866.957L1926.74 866.871L1903.58 847.8ZM1932.38 834.2V864.2H1933.03L1933.68 864.172L1932.38 834.2ZM1961.98 846.2L1939.4 865.955L1939.4 865.955L1961.98 846.2ZM1972.38 873.4L1942.43 871.736L1942.38 872.567V873.4H1972.38ZM1961.18 899.8L1938.6 880.045L1938.52 880.138L1938.44 880.232L1961.18 899.8ZM1758.78 1135L1736.04 1115.43L1719.2 1135.01L1736.05 1154.58L1758.78 1135ZM1981.98 1394.2L1959.25 1413.78L1959.33 1413.87L1959.4 1413.96L1981.98 1394.2ZM1993.98 1421.4L1964.03 1423.06L1964.08 1423.99L1964.19 1424.91L1993.98 1421.4ZM1534.78 1447L1513.57 1468.21L1534.78 1447ZM1534.78 846.2L1555.25 868.132L1555.63 867.779L1555.99 867.413L1534.78 846.2ZM1593.98 846.2L1572.05 866.67L1572.76 867.426L1573.51 868.132L1593.98 846.2ZM1605.98 1105.4H1575.98V1135.4H1605.98V1105.4ZM1737.18 1105.4H1767.18V1075.4H1737.18V1105.4ZM1737.18 1179V1209H1767.18V1179H1737.18ZM1605.98 1179V1149H1575.98V1179H1605.98ZM1593.98 1447L1572.77 1425.79L1572.4 1426.15L1572.05 1426.53L1593.98 1447ZM1960.77 1427.39C1960.48 1427.68 1959.18 1429.29 1952.83 1429.03L1950.33 1488.97C1969.58 1489.78 1988.55 1484.45 2003.19 1469.81L1960.77 1427.39ZM1951.58 1429C1946.19 1429 1944.76 1427.59 1943.76 1426.44L1898.6 1465.96C1912.54 1481.88 1931.37 1489 1951.58 1489V1429ZM1943.94 1426.66L1681.54 1121.06L1636.02 1160.14L1898.42 1465.74L1943.94 1426.66ZM1681.8 1159.84L1926.6 867.043L1880.57 828.557L1635.77 1121.36L1681.8 1159.84ZM1926.74 866.871C1928.51 864.716 1929.62 864.2 1932.38 864.2V804.2C1911.67 804.2 1893.58 812.75 1880.42 828.729L1926.74 866.871ZM1933.68 864.172C1936.18 864.063 1937.33 864.448 1937.71 864.602C1938.02 864.727 1938.55 864.982 1939.4 865.955L1984.56 826.445C1970.55 810.433 1951.58 803.337 1931.08 804.228L1933.68 864.172ZM1939.4 865.955C1942.7 869.722 1942.45 871.352 1942.43 871.736L2002.34 875.064C2003.38 856.248 1996.2 839.745 1984.56 826.445L1939.4 865.955ZM1942.38 873.4C1942.38 873.513 1942.53 875.561 1938.6 880.045L1983.76 919.555C1994.77 906.972 2002.38 891.42 2002.38 873.4H1942.38ZM1938.44 880.232L1736.04 1115.43L1781.52 1154.57L1983.92 919.368L1938.44 880.232ZM1736.05 1154.58L1959.25 1413.78L2004.71 1374.62L1781.51 1115.42L1736.05 1154.58ZM1959.4 1413.96C1963.28 1418.39 1963.93 1421.3 1964.03 1423.06L2023.94 1419.74C2022.97 1402.3 2015.61 1387.08 2004.56 1374.44L1959.4 1413.96ZM1964.19 1424.91C1964.13 1424.39 1964.14 1423.87 1964.22 1423.41C1964.29 1422.96 1964.38 1422.78 1964.33 1422.89C1964.2 1423.2 1963.41 1424.74 1960.77 1427.39L2003.19 1469.81C2015.98 1457.02 2026.3 1439.37 2023.78 1417.89L1964.19 1424.91ZM1564.38 1429C1560.27 1429 1558.14 1427.93 1555.99 1425.79L1513.57 1468.21C1527.42 1482.07 1545.02 1489 1564.38 1489V1429ZM1555.99 1425.79C1553.85 1423.64 1552.78 1421.51 1552.78 1417.4H1492.78C1492.78 1436.76 1499.71 1454.36 1513.57 1468.21L1555.99 1425.79ZM1552.78 1417.4V875.8H1492.78V1417.4H1552.78ZM1552.78 875.8C1552.78 870.737 1554.1 869.208 1555.25 868.132L1514.31 824.268C1499.47 838.125 1492.78 856.329 1492.78 875.8H1552.78ZM1555.99 867.413C1558.14 865.268 1560.27 864.2 1564.38 864.2V804.2C1545.02 804.2 1527.42 811.132 1513.57 824.987L1555.99 867.413ZM1564.38 864.2C1569.44 864.2 1570.97 865.516 1572.05 866.67L1615.91 825.73C1602.06 810.884 1583.85 804.2 1564.38 804.2V864.2ZM1573.51 868.132C1574.67 869.208 1575.98 870.737 1575.98 875.8H1635.98C1635.98 856.329 1629.3 838.125 1614.45 824.268L1573.51 868.132ZM1575.98 875.8V1105.4H1635.98V875.8H1575.98ZM1605.98 1135.4H1737.18V1075.4H1605.98V1135.4ZM1707.18 1105.4V1179H1767.18V1105.4H1707.18ZM1737.18 1149H1605.98V1209H1737.18V1149ZM1575.98 1179V1417.4H1635.98V1179H1575.98ZM1575.98 1417.4C1575.98 1421.51 1574.91 1423.64 1572.77 1425.79L1615.19 1468.21C1629.05 1454.36 1635.98 1436.76 1635.98 1417.4H1575.98ZM1572.05 1426.53C1570.97 1427.68 1569.44 1429 1564.38 1429V1489C1583.85 1489 1602.06 1482.32 1615.91 1467.47L1572.05 1426.53ZM2095.94 1447L2074.72 1468.21L2095.94 1447ZM2095.94 846.2L2116.41 868.132L2116.79 867.779L2117.15 867.413L2095.94 846.2ZM2491.14 845.4L2469.15 865.814L2469.91 866.628L2470.72 867.384L2491.14 845.4ZM2491.14 900.6L2512.35 921.813V921.813L2491.14 900.6ZM2167.14 911V881H2137.14V911H2167.14ZM2167.14 1091H2137.14V1121H2167.14V1091ZM2455.94 1114.2L2442.52 1141.03L2442.71 1141.13L2442.9 1141.22L2455.94 1114.2ZM2527.94 1177.4L2502.53 1193.34L2502.71 1193.64L2502.9 1193.93L2527.94 1177.4ZM2527.94 1367.8L2502.47 1351.94L2502.36 1352.12L2502.26 1352.29L2527.94 1367.8ZM2455.94 1435L2469.72 1461.65L2469.9 1461.55L2470.08 1461.46L2455.94 1435ZM2167.14 1382.2H2137.14V1412.2H2167.14V1382.2ZM2414.34 1369.4L2401.86 1342.12L2414.34 1369.4ZM2458.34 1331.8L2433.13 1315.54L2458.34 1331.8ZM2458.34 1210.2L2433.38 1226.84L2433.51 1227.04L2433.64 1227.23L2458.34 1210.2ZM2414.34 1175L2402.52 1202.57L2402.86 1202.72L2403.2 1202.85L2414.34 1175ZM2167.14 1163V1133H2137.14V1163H2167.14ZM2125.54 1429C2121.43 1429 2119.3 1427.93 2117.15 1425.79L2074.72 1468.21C2088.58 1482.07 2106.18 1489 2125.54 1489V1429ZM2117.15 1425.79C2115.01 1423.64 2113.94 1421.51 2113.94 1417.4H2053.94C2053.94 1436.76 2060.87 1454.36 2074.72 1468.21L2117.15 1425.79ZM2113.94 1417.4V875.8H2053.94V1417.4H2113.94ZM2113.94 875.8C2113.94 870.737 2115.25 869.208 2116.41 868.132L2075.47 824.268C2060.62 838.125 2053.94 856.329 2053.94 875.8H2113.94ZM2117.15 867.413C2119.3 865.268 2121.43 864.2 2125.54 864.2V804.2C2106.18 804.2 2088.58 811.132 2074.72 824.987L2117.15 867.413ZM2125.54 864.2H2464.74V804.2H2125.54V864.2ZM2464.74 864.2C2466.51 864.2 2467.33 864.496 2467.62 864.617C2467.88 864.726 2468.37 864.97 2469.15 865.814L2513.12 824.986C2500.22 811.091 2483.31 804.2 2464.74 804.2V864.2ZM2470.72 867.384C2471.13 867.761 2472.34 868.622 2472.34 873.4H2532.34C2532.34 854.711 2526.08 836.905 2511.55 823.416L2470.72 867.384ZM2472.34 873.4C2472.34 876.201 2471.7 877.61 2469.92 879.387L2512.35 921.813C2525.51 908.657 2532.34 891.932 2532.34 873.4H2472.34ZM2469.92 879.387C2469.14 880.172 2468.22 881 2464.74 881V941C2482.59 941 2499.27 934.895 2512.35 921.813L2469.92 879.387ZM2464.74 881H2167.14V941H2464.74V881ZM2137.14 911V1091H2197.14V911H2137.14ZM2167.14 1121H2349.54V1061H2167.14V1121ZM2349.54 1121C2385.61 1121 2416.36 1127.95 2442.52 1141.03L2469.35 1087.37C2433.65 1069.51 2393.46 1061 2349.54 1061V1121ZM2442.9 1141.22C2469.12 1153.87 2488.67 1171.26 2502.53 1193.34L2553.35 1161.46C2533.07 1129.14 2504.63 1104.39 2468.98 1087.18L2442.9 1141.22ZM2502.9 1193.93C2516.94 1215.19 2524.34 1240.25 2524.34 1270.2H2584.34C2584.34 1229.75 2574.14 1192.94 2552.98 1160.87L2502.9 1193.93ZM2524.34 1270.2C2524.34 1302 2516.8 1328.93 2502.47 1351.94L2553.4 1383.66C2574.27 1350.14 2584.34 1312 2584.34 1270.2H2524.34ZM2502.26 1352.29C2488.16 1375.65 2468.28 1394.39 2441.8 1408.54L2470.08 1461.46C2505.47 1442.54 2533.59 1416.49 2553.62 1383.31L2502.26 1352.29ZM2442.15 1408.35C2416.08 1421.84 2385.46 1429 2349.54 1429V1489C2393.62 1489 2433.93 1480.16 2469.72 1461.65L2442.15 1408.35ZM2349.54 1429H2125.54V1489H2349.54V1429ZM2167.14 1412.2H2349.54V1352.2H2167.14V1412.2ZM2349.54 1412.2C2377.55 1412.2 2403.54 1407.32 2426.81 1396.68L2401.86 1342.12C2387.8 1348.54 2370.59 1352.2 2349.54 1352.2V1412.2ZM2426.81 1396.68C2450.45 1385.88 2469.64 1369.63 2483.55 1348.06L2433.13 1315.54C2425.71 1327.04 2415.56 1335.86 2401.86 1342.12L2426.81 1396.68ZM2483.55 1348.06C2498.03 1325.61 2504.34 1299.08 2504.34 1270.2H2444.34C2444.34 1290.39 2439.98 1304.92 2433.13 1315.54L2483.55 1348.06ZM2504.34 1270.2C2504.34 1241.43 2498.07 1214.97 2483.03 1193.17L2433.64 1227.23C2439.94 1236.36 2444.34 1249.91 2444.34 1270.2H2504.34ZM2483.3 1193.56C2469.11 1172.27 2449.51 1156.76 2425.48 1147.15L2403.2 1202.85C2416.5 1208.18 2426.23 1216.13 2433.38 1226.84L2483.3 1193.56ZM2426.16 1147.43C2403.06 1137.53 2377.31 1133 2349.54 1133V1193C2370.83 1193 2388.28 1196.47 2402.52 1202.57L2426.16 1147.43ZM2349.54 1133H2167.14V1193H2349.54V1133ZM2137.14 1163V1382.2H2197.14V1163H2137.14Z" fill="#372579"/>
</svg>
